<svg width="25" height="25" viewBox="0 0 25 25" fill="none" xmlns="http://www.w3.org/2000/svg">
<path d="M12.5 6.25002C13.6458 6.25002 14.5833 7.18752 14.5833 8.33335C14.5833 9.47919 13.6458 10.4167 12.5 10.4167C11.3542 10.4167 10.4167 9.47919 10.4167 8.33335C10.4167 7.18752 11.3542 6.25002 12.5 6.25002ZM12.5 16.6667C15.3125 16.6667 18.5417 18.0104 18.75 18.75H6.25C6.48958 18 9.69791 16.6667 12.5 16.6667ZM12.5 4.16669C10.1979 4.16669 8.33333 6.03127 8.33333 8.33335C8.33333 10.6354 10.1979 12.5 12.5 12.5C14.8021 12.5 16.6667 10.6354 16.6667 8.33335C16.6667 6.03127 14.8021 4.16669 12.5 4.16669ZM12.5 14.5834C9.71875 14.5834 4.16666 15.9792 4.16666 18.75V20.8334H20.8333V18.75C20.8333 15.9792 15.2812 14.5834 12.5 14.5834Z" fill="white"/>
</svg>
