<svg width="30" height="30" viewBox="0 0 30 30" fill="none" xmlns="http://www.w3.org/2000/svg">
<path d="M16.25 10.7124C15.2625 10.7124 14.4625 11.5124 14.4625 12.4999C14.4625 13.4874 15.2625 14.2874 16.25 14.2874C17.2375 14.2874 18.0375 13.4874 18.0375 12.4999C18.0375 11.5124 17.2375 10.7124 16.25 10.7124Z" fill="#958D8E"/>
<path d="M16.25 3.75C11.5625 3.75 7.74996 7.425 7.52496 12.05L5.12496 15.25C4.81246 15.6625 5.11246 16.25 5.62496 16.25H7.49996V20C7.49996 21.375 8.62496 22.5 9.99996 22.5H11.25V26.25H20V20.4C22.95 19 25 15.9875 25 12.5C25 7.6625 21.0875 3.75 16.25 3.75ZM20 12.5C20 12.6625 19.9875 12.825 19.975 12.9875L21.0125 13.8125C21.1125 13.8875 21.1375 14.0125 21.075 14.125L20.075 15.8625C20.0125 15.975 19.875 16.0125 19.775 15.975L18.5375 15.475C18.275 15.675 18 15.8375 17.7 15.9625L17.5 17.2875C17.4875 17.4125 17.375 17.5 17.25 17.5H15.25C15.125 17.5 15.025 17.4125 15 17.2875L14.8125 15.9625C14.5 15.8375 14.225 15.675 13.9625 15.475L12.725 15.975C12.6125 16.0125 12.475 15.975 12.4125 15.8625L11.4125 14.125C11.35 14.025 11.375 13.8875 11.475 13.8125L12.525 12.9875C12.5125 12.825 12.5 12.6625 12.5 12.5C12.5 12.3375 12.525 12.1625 12.55 12.0125L11.4875 11.1875C11.3875 11.1125 11.3625 10.9875 11.425 10.8625L12.425 9.1375C12.4875 9.025 12.6125 8.9875 12.725 9.025L13.975 9.525C14.225 9.3375 14.5125 9.1625 14.8125 9.0375L15 7.7125C15.025 7.5875 15.125 7.5 15.25 7.5H17.25C17.375 7.5 17.475 7.5875 17.5 7.7125L17.6875 9.0375C17.9875 9.1625 18.2625 9.325 18.525 9.525L19.775 9.025C19.8875 8.9875 20.025 9.025 20.075 9.1375L21.075 10.8625C21.1375 10.975 21.1125 11.1125 21.0125 11.1875L19.95 12.0125C19.9875 12.1625 20 12.325 20 12.5Z" fill="#958D8E"/>
</svg>
